<?xml version="1.0" encoding="utf-8"?>
<!-- Generator: Adobe Illustrator 23.0.3, SVG Export Plug-In . SVG Version: 6.00 Build 0)  -->
<svg version="1.1" id="Layer_2" xmlns="http://www.w3.org/2000/svg" xmlns:xlink="http://www.w3.org/1999/xlink" x="0px" y="0px"
	 viewBox="0 0 152 55" style="enable-background:new 0 0 152 55;" xml:space="preserve">
<style type="text/css">
	.st0{fill:#FFFFFF;}
</style>
<g>
	<polygon class="st0" points="7.5,49.1 5.4,45.7 4,45.7 4,52.8 5.3,52.8 5.3,47.7 7.5,51.1 7.5,51.1 9.8,47.7 9.8,52.8 11,52.8 
		11,45.7 9.7,45.7 	"/>
	<path class="st0" d="M16.3,45.6c-2.2,0-3.7,1.7-3.7,3.7v0c0,2,1.5,3.7,3.7,3.7c2.2,0,3.7-1.7,3.7-3.7v0
		C20,47.2,18.4,45.6,16.3,45.6z M18.7,49.3c0,1.4-1,2.5-2.4,2.5c-1.4,0-2.4-1.1-2.4-2.5v0c0-1.4,1-2.5,2.4-2.5
		C17.7,46.7,18.7,47.9,18.7,49.3L18.7,49.3z"/>
	<polygon class="st0" points="24,51.2 21.8,45.7 20.4,45.7 23.4,52.9 24.5,52.9 27.4,45.7 26.1,45.7 	"/>
	<rect x="28.7" y="45.7" class="st0" width="1.3" height="7.1"/>
	<polygon class="st0" points="33.1,49.8 36.7,49.8 36.7,48.7 33.1,48.7 33.1,46.8 37.2,46.8 37.2,45.7 31.9,45.7 31.9,52.8 
		37.2,52.8 37.2,51.7 33.1,51.7 	"/>
	<polygon class="st0" points="43,45.7 41.7,45.7 41.7,52.8 46.7,52.8 46.7,51.7 43,51.7 	"/>
	<path class="st0" d="M51,45.6c-2.2,0-3.7,1.7-3.7,3.7v0c0,2,1.5,3.7,3.7,3.7c2.2,0,3.7-1.7,3.7-3.7v0C54.7,47.2,53.2,45.6,51,45.6z
		 M53.4,49.3c0,1.4-1,2.5-2.4,2.5s-2.4-1.1-2.4-2.5v0c0-1.4,1-2.5,2.4-2.5C52.4,46.7,53.4,47.9,53.4,49.3L53.4,49.3z"/>
	<polygon class="st0" points="58.7,51.2 56.6,45.7 55.2,45.7 58.2,52.9 59.3,52.9 62.2,45.7 60.9,45.7 	"/>
	<polygon class="st0" points="64.7,49.8 68.3,49.8 68.3,48.7 64.7,48.7 64.7,46.8 68.7,46.8 68.7,45.7 63.4,45.7 63.4,52.8 
		68.8,52.8 68.8,51.7 64.7,51.7 	"/>
	<path class="st0" d="M76.6,49.9h1.8v1.3c-0.4,0.3-1,0.5-1.7,0.5c-1.5,0-2.4-1.1-2.4-2.5v0c0-1.4,1-2.5,2.3-2.5c0.9,0,1.4,0.3,2,0.8
		l0.8-0.9c-0.7-0.6-1.5-1-2.7-1c-2.1,0-3.7,1.7-3.7,3.7v0c0,2.1,1.5,3.7,3.7,3.7c1.3,0,2.3-0.5,3-1.1v-3h-3V49.9z"/>
	<path class="st0" d="M86,49.8c0,1.3-0.7,2-1.8,2c-1.1,0-1.8-0.7-1.8-2v-4h-1.2v4.1c0,2.1,1.2,3.1,3,3.1c1.9,0,3.1-1.1,3.1-3.2v-4
		H86V49.8z"/>
	<path class="st0" d="M91.2,45.7l-3.1,7.2h1.3l0.7-1.7h3.4l0.7,1.7h1.3l-3.1-7.2H91.2z M90.6,50l1.2-2.8L93,50H90.6z"/>
	<path class="st0" d="M102.5,48L102.5,48c0-0.6-0.2-1.2-0.6-1.6c-0.5-0.4-1.2-0.7-2.1-0.7h-3.2v7.1H98v-2.5h1.5h0l1.7,2.5h1.5
		l-1.9-2.7C101.8,49.8,102.5,49.1,102.5,48z M98,49.2v-2.4h1.8c0.9,0,1.5,0.4,1.5,1.2v0c0,0.7-0.6,1.2-1.5,1.2H98z"/>
	<path class="st0" d="M106.6,45.7l-3.1,7.2h1.3l0.7-1.7h3.4l0.7,1.7h1.3l-3.1-7.2H106.6z M105.9,50l1.2-2.8l1.2,2.8H105.9z"/>
	<polygon class="st0" points="117.1,50.6 113.3,45.7 112.1,45.7 112.1,52.8 113.3,52.8 113.3,47.8 117.3,52.8 118.3,52.8 
		118.3,45.7 117.1,45.7 	"/>
	<polygon class="st0" points="119.6,46.9 121.9,46.9 121.9,52.8 123.1,52.8 123.1,46.9 125.4,46.9 125.4,45.7 119.6,45.7 	"/>
	<polygon class="st0" points="128,49.8 131.5,49.8 131.5,48.7 128,48.7 128,46.8 132,46.8 132,45.7 126.7,45.7 126.7,52.8 132,52.8 
		132,51.7 128,51.7 	"/>
	<polygon class="st0" points="134.8,49.8 138.3,49.8 138.3,48.7 134.8,48.7 134.8,46.8 138.8,46.8 138.8,45.7 133.5,45.7 
		133.5,52.8 138.8,52.8 138.8,51.7 134.8,51.7 	"/>
	<path class="st0" d="M143,45.7h-2.7v7.1h2.7c2.2,0,3.8-1.6,3.8-3.6v0C146.8,47.2,145.2,45.7,143,45.7z M145.4,49.3
		c0,1.4-1,2.4-2.5,2.4h-1.4v-4.8h1.4C144.5,46.8,145.4,47.9,145.4,49.3L145.4,49.3z"/>
	<path class="st0" d="M86.6,40l5.9-23.2L98.4,40h11.1l11.9-36.4h-11.1l-6.1,25.2L98.1,3.6L87.5,3.6l-6.1,25.1L75.2,3.6H63.7l1.9,5.8
		c-3.6-4.4-9.1-7.3-15.3-7.3c-8.1,0-15.1,4.9-18.1,12C31.1,7.3,25.7,3.6,17,3.6H0V40h10.8v-9.8h5.7l4.8,9.8h12.2l-7.4-11.9
		c1.9-1.1,3.4-2.6,4.4-4.4c0.9,10,9.4,17.8,19.6,17.8c10.5,0,19.1-8.3,19.7-18.6L75.5,40H86.6z M17,21.8h-6.2v-10H17
		c3.2,0,5.1,1.8,5.1,4.9C22.1,20.1,20.2,21.8,17,21.8z M60.1,14.5l-6.7,19.1c-0.4,1.2-1,1.8-1.5,1.8h0c-0.6,0-1-0.7-1.2-1.3
		l-3.4-9.6L38,21.2l-0.1,0c-0.5-0.2-1.3-0.6-1.3-1.2c0-0.5,0.6-1.1,1.8-1.5l19.1-6.7c0.5-0.2,0.9-0.2,1.3-0.2c0.6,0,1,0.2,1.2,0.4
		C60.2,12.3,60.6,13,60.1,14.5z"/>
	<path class="st0" d="M144.6,20.4c2.7-1.7,4.4-4.7,4.4-7.8c0-6.4-5.6-10.6-14.3-10.6c-8.6,0-14.1,4-14.1,10.3c0,3.1,2,6.2,5,8.1
		c-4.3,1.8-7,5.6-7,9.9c0,6.8,6.4,11.2,16.2,11.2c9.9,0,16.2-4.4,16.2-11.3C151.1,26,148.6,22.2,144.6,20.4z M134.9,9.6
		c3,0,4.6,1.3,4.6,3.7c0,2.3-1.6,3.6-4.6,3.6c-3,0-4.6-1.3-4.6-3.6C130.2,10.8,131.8,9.6,134.9,9.6z M134.9,33.3
		c-3.6,0-5.5-1.4-5.5-4.1c0-2.7,1.9-4.2,5.5-4.2c3.6,0,5.5,1.5,5.5,4.2C140.3,31.8,138.4,33.3,134.9,33.3z"/>
	<polygon class="st0" points="148.3,6 148.7,6 148.7,4 149.4,4 149.4,3.7 147.6,3.7 147.6,4 148.3,4 	"/>
	<path class="st0" d="M151.6,3.7l-0.7,1.9l-0.7-1.9h-0.4V6h0.3V4.7c0-0.1,0-0.1,0-0.3c0-0.1,0-0.2,0-0.3V4.1l0.7,1.9h0.3l0.7-1.9
		c0,0.1,0,0.2,0,0.3c0,0.1,0,0.2,0,0.2V6h0.3V3.7H151.6z"/>
</g>
</svg>
